<svg xmlns="http://www.w3.org/2000/svg" viewBox="0 0 680 120" fill="none">
  <rect width="680" height="120" rx="12" fill="#111111"/>
  <!-- Mark -->
  <rect x="8" y="8" width="104" height="104" rx="24" fill="#76B900"/>
  <path d="M36 36 L68 60 L36 84" stroke="#111111" stroke-width="13" stroke-linecap="round" stroke-linejoin="round" fill="none"/>
  <circle cx="84" cy="60" r="8" fill="#111111"/>
  <g fill="#F5F5F7" transform="translate(140, 0)">
    <path d="M0 52c0-6 2.5-11 7-15s10.5-6 17.5-6c6 0 11 1.5 15 4.5s6 7 6 12h-11c0-2.5-1.2-4.5-3.5-6s-4.8-2.2-7.5-2.2c-4 0-7 1-9.5 3s-3.5 4.5-3.5 7.5c0 3.5 1.5 6 4.5 8s7.5 3.8 13 5.2c5 1.2 9 3.5 12 6.5s4.5 7 4.5 11.5c0 6-2.5 11-7.5 15S27 100 21 100c-7 0-12.5-2-17-5.5S-2 87.5-2 83h11c.5 3 2 5.5 4.5 7s5.5 2.5 9 2.5c4 0 7.5-1 10-3.5s4-5 4-8c0-3.5-1.5-6.5-4.5-8.5s-7-3.5-12-5c-5.5-1.5-10-4-13-7S0 55 0 52z"/>
    <path d="M60 20h10v30c3-5 6.5-8.5 10.5-10.5S88 37 92 37c6 0 10.5 2 14 6s5 9 5 15v40h-10V60c0-4-1.2-7.5-3.5-10s-5.5-4-9.5-4c-4.5 0-8.5 2-12 5.5S70 58 70 63v35h-10V20z"/>
    <path d="M130 39h10v38c0 4 1.2 7.5 3.5 10s5.5 4 9.5 4c4.5 0 8.5-2 12-5.5s5-8 5-13V39h10v59h-10v-8c-3 5-6.5 8.5-10.5 10.5s-8 3-12.5 3c-6 0-10.5-2-14-6s-5-9-5-15V39z"/>
    <path d="M202 25h10v14h12v9h-12v32c0 3 .5 5 1.5 6s3 1.5 5.5 1.5h5v10h-7c-5 0-9-1.2-11.5-3.5S202 89 202 84V48h-8v-9h8V25z"/>
    <path d="M240 25h10v14h12v9h-12v32c0 3 .5 5 1.5 6s3 1.5 5.5 1.5h5v10h-7c-5 0-9-1.2-11.5-3.5S240 89 240 84V48h-8v-9h8V25z"/>
    <path d="M280 20h10v78h-10V20z"/>
    <path d="M308 68c0-9 3-16.5 9-22s13-8.5 21-8.5c8.5 0 15 2.5 20 8s7.5 12.5 7.5 21v3h-48c.5 5.5 2.5 10 6 13.5s8 5 13 5c4 0 7.5-1 10-3s4.5-4.5 5.5-7.5h11c-1.5 5.5-5 10-10 13.5s-10.5 5-17 5c-9 0-16-3-21.5-8.5S308 78 308 68zm10-4h37c-.5-5-2.5-9-6-12.5s-7.5-5-12.5-5c-5.5 0-10 2-13.5 5.5S318.5 59 318 64z"/>
  </g>
</svg>
